<svg aria-hidden="true" style="position: absolute; width: 0; height: 0; overflow: hidden;" version="1.1" xmlns="http://www.w3.org/2000/svg" xmlns:xlink="http://www.w3.org/1999/xlink">
<defs>
<symbol id="icon-facebook" viewBox="0 0 32 32">
<path d="M18.076 29.184h-4.943v-13.184h-3.296v-4.538h3.296l-0.004-2.684c0-3.703 1.009-5.963 5.376-5.963h3.637v4.55h-2.276c-1.707 0-1.779 0.629-1.779 1.822l-0.011 2.274h4.087l-0.484 4.542h-3.595l-0.009 13.184z"></path>
</symbol>
<symbol fill="currentColor" id="icon-logo" viewBox="0 0 32 32">
<path d="M23.733 29.224c0-0.023 0.003-0.046 0.004-0.068v-10.539l-4.471 2.247c-0.050 0.029-0.11 0.060-0.172 0.088l-0.012 0.005-0.005 0.003c-0.212 0.089-0.444 0.139-0.689 0.139-0.245 0-0.478-0.050-0.69-0.139l-0.001 0.001-0.037-0.019c-0.059-0.026-0.106-0.050-0.151-0.076l0.009 0.005-4.477-2.251v7.006c0 0.017 0.002 0.033 0.002 0.050-0.014 0.969-0.803 1.75-1.775 1.75s-1.761-0.78-1.775-1.748v-0.001c0-0.021 0.003-0.042 0.003-0.063h-0.003v-9.893l0.004-0.004c0.042-0.946 0.819-1.697 1.771-1.698h0c0.366 0 0.707 0.113 0.99 0.304l5.154 2.954c0.281 0.184 0.615 0.292 0.974 0.292 0.001 0 0.002 0 0.003 0 0.366 0 0.706-0.111 0.987-0.302l-0.006 0.004 5.139-2.946c0.278-0.192 0.623-0.306 0.994-0.306 0.001 0 0.001 0 0.002 0h0.003c0.958 0.001 1.739 0.761 1.772 1.711l0 0.003v0.011c0 0.017 0.003 0.033 0.003 0.050 0 0.016-0.003 0.033-0.003 0.049v10.596c2.563-2.765 4.131-6.465 4.131-10.533 0-8.562-6.941-15.502-15.503-15.502s-15.502 6.94-15.502 15.502c0 8.562 6.94 15.503 15.502 15.503 0.005 0 0.011 0 0.018 0 2.879 0 5.575-0.789 7.881-2.162l-0.071 0.039c-0.001-0.021-0.006-0.041-0.006-0.062z"></path>
</symbol>
<symbol id="icon-pencil" viewBox="0 0 32 32">
<path d="M26.824 6.245l2.541 2.542c0.151 0.15 0.228 0.35 0.228 0.554 0 0.207-0.077 0.405-0.231 0.556h0.002l-16.183 16.182 1.067 1.068 16.183-16.182c0.414-0.416 0.67-0.989 0.67-1.622s-0.256-1.207-0.671-1.623l-6.154-6.152c-0.414-0.415-0.987-0.671-1.619-0.671-0.001 0-0.002 0-0.003 0h0c-0.584 0-1.176 0.223-1.624 0.672l-16.179 16.179 1.067 1.067 16.182-16.182c0.153-0.152 0.348-0.228 0.554-0.229s0.404 0.077 0.556 0.229l2.544 2.543-15.347 15.347 1.067 1.067 15.348-15.347zM3.909 21.895c-0.313-0.307-0.682-0.552-1.171-0.56-0.382-0.010-0.778 0.212-0.979 0.504-0.212 0.29-0.298 0.615-0.329 0.963l-0.523 6.096c-0.006 0.056-0.009 0.122-0.009 0.188 0 0.004 0 0.007 0 0.011v-0.001c-0 0.008-0 0.017-0 0.027 0 0.547 0.221 1.043 0.578 1.402l-0-0c0.365 0.366 0.878 0.577 1.423 0.577h0.005c0.060 0 0.118-0.002 0.179-0.006l6.119-0.525c0.347-0.030 0.673-0.118 0.962-0.33 0.292-0.202 0.512-0.595 0.503-0.979-0.008-0.49-0.252-0.86-0.56-1.171l-6.197-6.197zM2.967 29.59c-0.015 0-0.039 0.003-0.064 0.003-0.333-0.023-0.475-0.164-0.497-0.498l-0.005-0.063h0.009l0.514-5.992 6.035 6.038-5.991 0.512z"></path>
</symbol>
<symbol id="icon-screen" viewBox="0 0 32 32">
<path d="M16.744 22.326v-2.233h-1.488v2.233c-1.641 0.333-3.158 1.367-3.523 2.996l-9.872-0.019v1.488l9.802-0.002c0.274 2.11 2.060 3.723 4.222 3.723h0c2.161-0.002 3.945-1.614 4.216-3.702l0.002-0.021 10.036 0.002v-1.488l-10.106 0.019c-0.381-1.704-1.539-2.741-3.289-2.996zM16 29.023c-1.542-0.004-2.974-1.436-2.977-2.977 0.003-1.539 1.435-2.229 2.977-2.233 1.538 0.004 2.974 0.694 2.977 2.233-0.003 1.54-1.439 2.973-2.977 2.977zM27.767 1.488h-23.535c-1.284 0.002-2.369 0.945-2.372 2.233v13.395c0.003 1.284 0.947 2.23 2.233 2.233h23.814c1.285-0.003 2.23-0.948 2.233-2.233v-13.395c-0.003-1.287-1.087-2.23-2.372-2.233zM28.63 16.915c-0.002 0.469-0.254 0.943-0.723 0.945h-23.814c-0.469-0.002-0.741-0.276-0.744-0.744v-13.395c0-0.47 0.414-0.764 0.883-0.766l23.535 0.002c0.47 0 0.861 0.391 0.863 0.861l-0.002 13.098h0.003z"></path>
</symbol>
<symbol id="icon-tag" viewBox="0 0 32 32">
<path d="M23.473 17.724c-0.239-3.894-3.028-7.079-6.647-7.511v-0.271c-0.028-0.83-0.5-1.544-1.184-1.914l-0.012-0.006-3.517-1.726c-0.175-0.049-0.465-0.519-0.433-0.696v-1.341c0.004-0.123 0.103-0.222 0.225-0.225h5.486v0.476c0.001 1.011 0.82 1.83 1.831 1.831h1.407c1.011-0.001 1.83-0.82 1.831-1.831v-1.407c-0.002-1.011-0.82-1.83-1.831-1.833h-0l-1.407 0.002c-0.856 0.002-1.573 0.591-1.77 1.386l-0.003 0.013h-5.544c-0.877 0.001-1.588 0.712-1.589 1.589v1.341c0.024 0.831 0.497 1.546 1.184 1.914l0.012 0.006 3.516 1.725c0.175 0.052 0.465 0.519 0.435 0.697v0.247c-3.76 0.295-6.689 3.54-6.937 7.535l-0.162-0.269v10.909c0.001 1.508 1.399 2.908 2.909 2.909h9.455c1.511-0.001 2.906-1.401 2.909-2.909v-10.909l-0.163 0.269zM18.755 3.103c0.005-0.256 0.211-0.462 0.467-0.467h1.408c0.252 0 0.465 0.214 0.468 0.467v1.407c-0.005 0.256-0.212 0.462-0.467 0.467h-1.408c-0.256-0.006-0.462-0.211-0.468-0.466v-1.408zM16.752 15.951c0.256 0.004 0.462 0.21 0.465 0.466v1.409c0 0.251-0.214 0.465-0.465 0.466h-1.409c-0.255-0.005-0.461-0.211-0.466-0.466v-1.409c0.004-0.256 0.21-0.462 0.465-0.466h1.41zM22.182 18.909v9.455c-0.003 0.75-0.705 1.452-1.455 1.455h-9.455c-0.75-0.002-1.452-0.705-1.455-1.455v-9.455l0.062 0.181v-0.684c-0.003-0.111-0.009-0.15-0.007-0.15 0.004-3.557 2.496-6.397 5.59-6.703v3.033h-0.119c-1.011 0-1.83 0.819-1.83 1.83v0 1.409c0.001 1.010 0.82 1.829 1.83 1.831h1.409c1.010-0.002 1.828-0.82 1.83-1.83v-1.409c-0.002-0.983-0.779-1.784-1.752-1.824l-0.004-0v-2.999c2.959 0.447 5.298 3.216 5.301 6.663 0.001 0-0.004 0.039-0.007 0.149v0.684l0.062-0.18z"></path>
</symbol>
<symbol id="icon-twitter" viewBox="0 0 32 32">
<path d="M27.366 8.33c-0.848 0.383-1.831 0.666-2.862 0.799l-0.052 0.005c1.046-0.639 1.834-1.613 2.22-2.772l0.010-0.036c-0.98 0.578-2.066 1.004-3.224 1.23-0.928-0.995-2.247-1.616-3.711-1.616-2.8 0-5.070 2.27-5.070 5.070 0 0.416 0.050 0.82 0.144 1.207l-0.007-0.035c-4.223-0.216-7.938-2.224-10.428-5.272l-0.020-0.026c-0.433 0.732-0.689 1.613-0.689 2.554 0 1.75 0.886 3.293 2.234 4.205l0.018 0.011c-0.847-0.026-1.635-0.258-2.323-0.645l0.025 0.013v0.060c0.002 2.445 1.731 4.486 4.033 4.968l0.033 0.006c-0.394 0.112-0.848 0.176-1.316 0.176-0.006 0-0.013 0-0.019-0h0.001c-0.328 0-0.638-0.032-0.954-0.080 0.668 2.030 2.531 3.477 4.738 3.514l0.004 0c-1.712 1.354-3.902 2.172-6.283 2.172-0.005 0-0.009 0-0.014 0h0.001c-0.42 0-0.824-0.020-1.22-0.070 2.197 1.427 4.884 2.276 7.77 2.276 0.003 0 0.006 0 0.009 0h-0c9.332 0 14.43-7.726 14.43-14.43 0-0.218 0-0.436-0.012-0.656 1-0.72 1.852-1.612 2.536-2.628 0.682-1.016 0 0 0 0z"></path>
</symbol>
</defs>
</svg>
