<svg xmlns="http://www.w3.org/2000/svg"><path fill="currentColor" paint-order="stroke fill markers" fill-rule="evenodd" d="M66.749 82.193c0-.064.007-.128.01-.192v-29.64l-12.574 6.32a5.055 5.055 0 01-.515.259l-.015.007c-.595.25-1.25.39-1.937.39-.69 0-1.345-.14-1.94-.392l-.003.002-.104-.053a5.229 5.229 0 01-.398-.199l-12.591-6.33V72.07c0 .049.006.092.006.142a4.992 4.992 0 01-9.983 0c0-.06.008-.117.008-.177h-.008V44.212l.012-.01a4.99 4.99 0 014.981-4.776c1.03 0 1.988.317 2.784.854l14.492 8.309h.003c.79.518 1.73.82 2.74.82a4.968 4.968 0 002.768-.837l14.453-8.285a4.972 4.972 0 012.802-.861H71.75a4.99 4.99 0 014.984 4.822v.03c0 .047.007.093.007.142 0 .046-.007.093-.007.138v29.802c7.207-7.778 11.619-18.183 11.619-29.623 0-24.08-19.521-43.6-43.601-43.6s-43.6 19.52-43.6 43.6c0 24.08 19.52 43.602 43.6 43.602a43.385 43.385 0 0022.016-5.972c-.002-.059-.018-.115-.018-.175z"/></svg>