<svg xmlns="http://www.w3.org/2000/svg" width="43" height="43"><path fill="currentColor" paint-order="stroke fill markers" fill-rule="evenodd" d="M36.045 8.392l3.415 3.416c.203.202.306.47.307.745 0 .278-.104.544-.31.747h.003L17.714 35.044l1.434 1.435 21.746-21.744a3.088 3.088 0 00-.001-4.36l-8.269-8.267a3.076 3.076 0 00-2.18-.902c-.785 0-1.58.3-2.182.903L6.521 23.85l1.434 1.434L29.699 3.54c.205-.204.468-.307.745-.308.276 0 .543.104.747.308l3.419 3.417L13.987 27.58l1.434 1.434L36.045 8.392zM5.253 29.422c-.42-.413-.916-.742-1.574-.753-.514-.013-1.046.285-1.316.677-.285.39-.4.827-.442 1.294l-.703 8.192a2.652 2.652 0 00-.012.266 2.675 2.675 0 00.776 1.92c.49.492 1.18.775 1.912.775h.007c.08 0 .159-.003.24-.008l8.222-.705c.466-.041.904-.159 1.293-.443.392-.272.688-.8.676-1.315-.011-.659-.338-1.156-.752-1.574l-8.327-8.327zM3.987 39.762c-.02 0-.053.004-.086.004-.448-.031-.638-.22-.668-.669l-.007-.084h.012l.69-8.052 8.11 8.113-8.051.688z"/></svg>