<svg xmlns="http://www.w3.org/2000/svg" width="40" height="43"><path fill="currentColor" paint-order="stroke fill markers" fill-rule="evenodd" d="M21 30v-3h-2v3c-2.205.447-4.244 1.837-4.734 4.026L1 34v2l13.172-.003A5.72 5.72 0 0019.846 41a5.717 5.717 0 005.668-5.003L39 36v-2l-13.58.026c-.512-2.29-2.068-3.683-4.42-4.026zm-1 9c-2.072-.005-3.996-1.93-4-4 .004-2.068 1.928-2.995 4-3 2.066.005 3.996.932 4 3-.004 2.07-1.934 3.995-4 4zM35.812 2H4.187C2.461 2.003 1.004 3.27 1 5v18c.004 1.726 1.273 2.996 3 3h32c1.727-.004 2.996-1.274 3-3V5c-.004-1.729-1.461-2.996-3.188-3zm1.16 20.73c-.003.63-.341 1.267-.972 1.27H4c-.63-.003-.996-.371-1-1V5c0-.631.557-1.027 1.187-1.03l31.625.003c.631 0 1.157.526 1.16 1.157l-.003 17.6h.004z"/></svg>