<svg xmlns="http://www.w3.org/2000/svg" width="23" height="44"><path fill="currentColor" paint-order="stroke fill markers" fill-rule="evenodd" d="M21.776 24.37c-.328-5.354-4.164-9.733-9.14-10.327v-.373a3.105 3.105 0 00-1.645-2.64L6.155 8.657c-.24-.068-.64-.713-.595-.957V5.856a.32.32 0 01.31-.31h7.543V6.2a2.521 2.521 0 002.518 2.518h1.935A2.52 2.52 0 0020.384 6.2V4.265a2.524 2.524 0 00-2.518-2.52l-1.935.003a2.513 2.513 0 00-2.438 1.923H5.87a2.188 2.188 0 00-2.185 2.185V7.7a3.082 3.082 0 001.644 2.64l4.834 2.372c.24.072.64.714.598.958v.34c-5.17.405-9.198 4.867-9.538 10.36L1 24v15c.002 2.074 1.924 3.998 4 4h13c2.078-.002 3.996-1.926 4-4V24l-.224.37zM15.288 4.266a.654.654 0 01.643-.642h1.935c.346 0 .64.294.643.642V6.2a.655.655 0 01-.643.642h-1.935a.657.657 0 01-.643-.642V4.265zm-2.754 17.667a.65.65 0 01.64.641v1.937c0 .345-.294.64-.64.641h-1.937a.654.654 0 01-.641-.641v-1.937a.65.65 0 01.64-.641h1.938zM20 26v13c-.004 1.031-.969 1.997-2 2H5c-1.031-.003-1.996-.969-2-2V26l.085.249v-.94c-.004-.152-.012-.206-.01-.206.006-4.891 3.432-8.796 7.686-9.216v4.17h-.164a2.516 2.516 0 00-2.516 2.516v1.937a2.52 2.52 0 002.516 2.517h1.937a2.521 2.521 0 002.516-2.517v-1.937a2.515 2.515 0 00-2.414-2.508v-4.123c4.068.614 7.285 4.422 7.289 9.161.002 0-.006.054-.01.205v.94L20 26z"/></svg>