<svg xmlns="http://www.w3.org/2000/svg" width="16" height="13"><path fill="currentColor" paint-order="stroke fill markers" fill-rule="evenodd" d="M13.683 2.665a5.233 5.233 0 01-1.457.402 2.565 2.565 0 001.115-1.404c-.49.289-1.033.502-1.612.615a2.535 2.535 0 00-4.322 2.313 7.189 7.189 0 01-5.224-2.649 2.537 2.537 0 00.781 3.385 2.526 2.526 0 01-1.149-.316v.03a2.54 2.54 0 002.033 2.487 2.502 2.502 0 01-.667.088c-.164 0-.319-.016-.477-.04a2.534 2.534 0 002.371 1.757 5.087 5.087 0 01-3.148 1.086c-.21 0-.412-.01-.61-.035a7.2 7.2 0 003.889 1.138c4.666 0 7.215-3.863 7.215-7.215 0-.109 0-.218-.006-.328.5-.36.926-.806 1.268-1.314.341-.508 0 0 0 0"/></svg>